<?xml version="1.0" encoding="utf-8"?>
<!-- Generator: Adobe Illustrator 22.1.0, SVG Export Plug-In . SVG Version: 6.00 Build 0)  -->
<svg version="1.1" id="Layer_1" xmlns="http://www.w3.org/2000/svg" xmlns:xlink="http://www.w3.org/1999/xlink" x="0px" y="0px"
	 viewBox="0 0 864 864" style="enable-background:new 0 0 864 864;" xml:space="preserve">
<style type="text/css">
	.st0{fill:#FFFFFF;}
</style>
<g>
	<g>
		<g>
			<path class="st0" d="M223.1,427.2c-5.3-6.3-14.5-8.1-22.1-5.3c-8.5,3.1-13.6,11.3-14.3,20.1c-1.7,19.8,19.1,35.4,37.7,34.5
				c21.6-1,26.3-24.9,23.9-42.4c-1.1-8.4-3.8-16.8-8.9-23.6c-4.6-6.3-12.6-12.8-20.9-12.7c-12.1,0.2-11.5,18.4-11.3,26.7
				c0.4,12.6,3.7,24.9,9.4,36.1c2,3.8,7.7,0.5,5.7-3.4c-4.2-8.1-6.9-16.8-8.1-25.8c-0.5-3.8-0.6-7.7-0.6-11.6
				c0.2-4.2,0.2-8.9,1.7-12.9c2.6-6.8,13.2,1.4,16.1,4.5c4.4,4.6,7,10.7,8.6,16.8c1.7,6.4,2.2,13.1,1.4,19.6
				c-0.6,6.9-2.9,14.8-8.9,19.1c-6.9,4.6-16.4,3-23.4-0.4c-6.5-3-12.6-8.2-15.2-15.2c-2.6-7.3-1.4-16.9,5.3-21.6
				c5.7-4.1,14-3.4,18.6,2C221.1,435.2,225.8,430.5,223.1,427.2L223.1,427.2z"/>
		</g>
	</g>
	<g>
		<g>
			<path class="st0" d="M214.1,574.1c-16.8,8.9-31.1,26.3-33.3,45.6c-1.1,10.1,3.5,18.9,12.9,23c8.2,3.5,17.8,3.6,26.3,1.1
				c16.6-4.8,30.3-19.9,27.9-37.8c-2.2-15.6-16-31-33-28.2c-17.1,2.8-29.5,25-19.2,40.1c2.4,3.5,8.1,0.2,5.7-3.4
				c-7.2-10.5,0.3-25.3,11.4-29.4c12.8-4.7,24.7,6.7,27.8,18.4c3.8,14.2-5.7,27.2-18.6,32.5c-12.2,4.9-35.4,4.2-34.9-13.7
				c0.2-8.8,4.7-17.7,9.7-24.7c5.3-7.5,12.5-13.5,20.6-17.7C221.3,577.9,217.9,572.1,214.1,574.1L214.1,574.1z"/>
		</g>
	</g>
	<g>
		<g>
			<path class="st0" d="M219.1,219.9c-10.9,14.3-18.8,30.7-23.1,48.1c-3.4,13.2-3.3,32.4,13.4,36.1s29.6-11.3,35.6-25
				c6.5-14.8,5.5-32.3-8.2-42.5c-14.4-10.7-35-5.9-43.9,9.6c-2.2,3.8,3.6,7,5.7,3.4c6.5-11.2,20.8-15.6,32.1-9
				c12.5,7.3,13.9,22,8.9,34.6c-4.3,10.9-14.7,25.5-28.3,22.7c-14.1-3-10.7-21.3-7.9-31.2c4.4-15.6,11.8-30.3,21.6-43.2
				C227.4,219.9,221.7,216.6,219.1,219.9L219.1,219.9z"/>
		</g>
	</g>
	<g>
		<g>
			<path class="st0" d="M334,290.7c6.1-9.7,10.5-20.4,12.5-31.6c0.6-2.9-3.3-6.1-5.6-3.3c-4.6,5.9-3.3,14.3,2.6,19.1
				c6.8,5.7,16.5,4.8,24.5,2.9c16.4-3.9,30.1-15.1,41.2-27.4c6.6-7.3,12.5-15.1,18.4-23c-1.9,0-3.8,0-5.7,0
				c8.5,11.5,15.1,24.3,19.2,37.9c0.6-1.3,1-2.6,1.5-3.8c-7,4.2-14.8,6.1-23,5.5c-3.8-0.2-4.4,5.5-0.9,6.5
				c30.8,8.9,65.6-4.2,83.3-30.9c-1.8,0.2-3.4,0.5-5.3,0.6c8.9,7.9,20,13.2,31.9,15.1c5.7,0.9,11.6,1,17.3,0.3
				c6.5-0.9,12.6-3.4,19.1-4.5c7.3-1.4,14.4,1.4,21.4,3.4c6.9,1.9,14,3.8,20.9,5.3c14.4,3.3,28.9,5.7,43.5,7.3
				c16.4,1.9,32.9,2.9,49.5,2.8c4.2,0,4.2-6.6,0-6.6c-28.6,0.1-57-2.7-84.9-8.6c-7-1.4-14-3.1-21.1-4.9c-6.5-1.8-13-4.1-19.7-5.1
				c-6.6-1-12.5,0.2-18.9,2.2c-5.9,1.8-11.7,2.9-18,2.8c-13.2-0.2-26.3-5.1-36.3-13.9c-1.7-1.4-4-1.2-5.3,0.6
				c-16,24.3-48,35.8-75.8,27.8c-0.2,2.2-0.6,4.3-0.9,6.5c9.3,0.6,18.4-1.7,26.3-6.5c1.3-0.7,1.9-2.3,1.5-3.8
				c-4.2-14.2-10.9-27.6-19.9-39.5c-1.6-2.2-4.2-2.2-5.7,0c-10.5,14.1-21.7,28.8-36.6,38.7c-7.1,4.7-15.1,8.2-23.5,9.4
				c-4.5,0.6-9.7,0.7-13.6-2c-2.7-1.9-4.9-6.6-2.6-9.7c-1.8-1-3.8-2.2-5.6-3.3c-1.9,10.8-5.9,20.8-11.8,30
				C325.9,291.1,331.7,294.3,334,290.7L334,290.7z"/>
		</g>
	</g>
	<g>
		<g>
			<path class="st0" d="M320.9,463.5c-0.7-8.1,5.7-14.4,12.9-17.2c9.4-3.7,19.9-1.3,29.5,0.5c15.3,2.7,34.9,3.8,44.3-11.4
				c-2.1-0.6-4.2-1.1-6.1-1.7c-0.1,10.1,8.1,17.9,17.4,20c11.3,2.6,22.3-3.1,31-10c17.7-14,31-33.7,38.8-54.7
				c4.5-12.1,6.9-24.7,7.7-37.4c0.2-3.6-4.5-4.2-6.1-1.7c-23.1,32.3-30.7,72.2-33.4,110.9c-0.6,10.1-1,20.1-1.4,30.2
				c-0.2,4.9-0.2,9.8-0.2,14.8c-0.1,4.6-0.6,9.8,1.8,14c4,7.6,12.9,6.9,19.1,2.6c7.3-5.1,10.6-12.8,12.7-21.2
				c4.9-20.5,0.4-43-12.4-59.9c-1.3,1.6-2.6,3.3-3.8,4.9c12.2,4.2,25,8.1,38,7.8c6.1-0.2,12.2-1.4,18-3.8c6-2.6,11.6-6,17.8-7.8
				c6.5-1.9,13.2-2.4,19.8-2.9c6.9-0.5,14-1,21-1.4c7-0.5,14-1,21-1.4c6.5-0.5,12.5-1,18.4,2.3c4.9,2.8,9.7,6.1,15.5,4.5
				c5-1.4,8.5-5.3,7.6-10.7c-0.7-4.2-7.1-2.4-6.4,1.8c0.2,1.5-2.2,2.4-3.4,2.6c-2.3,0.5-4.5-0.8-6.5-1.9c-4.5-2.6-8.4-4.9-13.6-5.6
				c-6-0.6-12.2,0.2-18.2,0.7c-6.3,0.5-12.7,0.9-19,1.4c-12,0.9-24.5,0.7-36.2,3.8c-11.4,3-20.8,10.7-32.7,11.7
				c-13.4,1.1-26.6-3.3-39.2-7.4c-2.6-0.9-5.5,2.6-3.8,4.9c10.3,13.6,14.9,30.6,13,47.5c-0.9,7.5-2.7,16.4-8.1,21.9
				c-2.2,2.2-5.2,4.7-8.5,4.9c-4.2,0.2-5-4.3-5.1-7.6c-0.6-17.7,0.5-35.8,1.8-53.5c1.4-17.4,3.7-34.8,8.1-51.6
				c4.9-19.1,12.8-37.2,24.3-53.2c-2.1-0.6-4.2-1.1-6.1-1.7c-1,19.6-7,38.9-17.2,55.7c-4.9,8.4-10.9,16.1-17.9,23.1
				c-6.9,7-15.2,14.3-25,16.6c-9,2.2-21.7-2.6-21.6-13.5c0-3.4-4.5-4.4-6.1-1.7c-4.5,7.3-13.3,9.7-21.5,9.9
				c-10.1,0.2-19.9-2.8-29.8-3.8c-8.9-0.9-18,0.2-25.7,5.3c-6.6,4.5-11.5,11.7-10.7,20C314.7,467.8,321.3,467.8,320.9,463.5
				L320.9,463.5z"/>
		</g>
	</g>
	<g>
		<g>
			<path class="st0" d="M342.9,622.8c0.6-11.2,1.1-22.3,1.8-33.5c0.2-4.2-0.6-10.8,2.2-14c1.9-2.2,5.3-2.6,8.1-1.8
				c8.2,2.1,8,11.8,3.8,17.6c-5.6,7.8-16.4,8.5-25,7.6c-3.8-0.4-4.3,5.4-0.9,6.5c51,15.9,104.2,31.8,158,23.5
				c2.9-0.5,3.2-4.9,0.8-6.1c-3.8-1.9-7-4.5-9.8-7.7c-0.2,1.8-0.5,3.4-0.6,5.3c22.7-14.4,50.8-7.9,75.8-5.9
				c13.2,1,26.4,1.2,39.3-2.1c14-3.6,27-10.5,41-14c13.1-3.4,28.8-3.6,39.6,5.8c3.2,2.8,7.9-1.8,4.7-4.7
				c-9.8-8.6-23.1-10.9-35.7-9.4c-14.4,1.7-27.5,8.1-41,12.8c-14,4.9-28.1,6.2-42.9,5.3c-13.7-0.9-27.4-3-41.1-3.4
				c-15-0.4-30.2,1.7-43,9.8c-1.8,1.2-2.2,3.6-0.6,5.3c3.2,3.6,6.9,6.5,11.3,8.7c0.2-2,0.6-4.1,0.8-6.1
				c-52.6,8.1-104.8-8.1-154.4-23.5c-0.2,2.2-0.6,4.3-0.9,6.5c9.3,1,19.5-0.2,26.8-6.5c6.1-5.2,9.4-14.1,6.9-21.9
				c-2.4-6.9-9.5-11.1-16.8-10.3c-8.9,1-11.9,8.3-12.4,16.4c-0.7,13.3-1.4,26.6-2.1,40C336.1,627.1,342.7,627.1,342.9,622.8
				L342.9,622.8z"/>
		</g>
	</g>
</g>
</svg>
