<?xml version="1.0" encoding="utf-8"?>
<!-- Generator: Adobe Illustrator 22.1.0, SVG Export Plug-In . SVG Version: 6.00 Build 0)  -->
<svg version="1.1" id="Layer_1" xmlns="http://www.w3.org/2000/svg" xmlns:xlink="http://www.w3.org/1999/xlink" x="0px" y="0px"
	 viewBox="0 0 864 864" style="enable-background:new 0 0 864 864;" xml:space="preserve">
<style type="text/css">
	.st0{fill:#FFFFFF;}
</style>
<g>
	<g>
		<path class="st0" d="M187.7,268.2c-0.2,11-0.2,22-0.4,33c-0.3,26.2-0.6,52.5-0.9,78.7c-0.4,31.9-0.7,63.8-1.1,95.7
			c-0.3,27.5-0.6,54.9-0.9,82.4c-0.2,13.4-0.9,26.9-0.5,40.3c0,0.2,0,0.4,0,0.5c0,2.7,2.5,4.1,4.9,3.7c42.5-6.9,85.9-9,128.9-6.1
			c21.6,1.4,43.1,4,64.4,8c7.2,1.3,14.7,2.3,21.7,4.8c5.5,2,10.8,4.5,15.9,7.1c6.6,3.3,13.1,6.9,19.3,11c4,2.6,9.4,5.8,11.8,10.2
			c1.9,3.7,6.8,1.5,7.2-1.9c1.5-14.8,1.5-29.6,1.5-44.5c0-21.6-0.5-43.2-1.2-64.7c-1.5-50.4-3.8-100.7-6-151
			c-1.6-38.1-3.9-76.3-3.6-114.5c0-2.7,0.1-5.3,0.2-8c0.2-8-1.1-14.6-7.7-19.6c-11.4-8.7-26-14-39.3-19
			c-14.6-5.4-29.5-10.1-44.8-13.4c-17.5-3.9-35.6-5.8-53.5-7.2c-29.6-2.3-59.6-2.3-89.2,0c-4.6,0.4-11.3-0.2-15.4,2.2
			c-10.2,5.6-11.7,16.9-11.6,27.5c0,7.7,0.4,15.4,0.2,23.1c1.3-1.3,2.6-2.6,3.9-3.9c-10.8-0.2-21.5-0.2-32.3-0.2
			c-5.5,0-11-0.1-16.5-0.2c-4.8-0.1-10.9-1-13.9,3.6c-2.6,4.2-1.1,12-0.9,16.6c1.2,27.3,2.3,54.7,3.4,82c1.6,41,3.1,82,4.4,123
			c1.2,38.2,2.3,76.5,2.8,114.7c0.2,13.2,0.2,26.3-0.1,39.5c-0.1,4.6-0.3,9.4,3.2,12.8c4.1,4,9.6,2.7,14.5,2.1
			c3.9-0.5,8-0.2,11.8-0.3c45.3-1.3,90.7-2.7,136-4.6c37.1-1.6,74-2.9,111.1-2.6c38.3,0.4,76.5,1.2,114.8,2.1
			c38.6,0.9,77.3,1.9,115.9,2.9c22.5,0.6,45,1.2,67.5,1.9c1.1,0,2.1,0.1,3.2,0.1c2.2,0.1,3.8-1.9,3.9-3.9
			c0.5-13.3,1.1-26.5,1.6-39.8c1.3-31.9,2.6-63.9,3.9-95.8c1.5-38.6,3.2-77.3,4.7-115.9c1.4-33.6,2.8-67.3,4.2-100.9
			c0.7-16.9,1.9-33.9,2.2-50.8c0-0.4,0-0.7,0.1-1.1c0.2-1.5-1.3-3.5-2.9-3.7c-18-3.1-36-6.2-54-9.4c0.9,1.2,1.9,2.5,2.9,3.7
			c-0.2-4.8-0.4-9.6-0.5-14.5c-0.2-3.2-0.2-6.5-0.4-9.7c-0.1-1.5,0.2-3.5-0.3-5c-1.4-4.6-8-6.9-12.1-8c-6.4-1.7-13.1-2.9-19.6-4.2
			c-13.2-2.5-26.6-4.4-40.1-5.4c-48.8-3.7-100,5.4-139.2,36.3c-8.9,7-17.4,15.2-24.4,24.1c-6.4,8.3-7.4,17.8-9.6,27.8
			c-0.9,3.9-1.5,7.7-1.7,11.7c-0.8,12.3-1.6,24.6-2.6,36.9c-3.9,52.8-8.7,105.6-13,158.4c-4.3,54.2-8.2,108.5-9.8,162.8
			c-0.2,6.7-0.4,13.5-0.5,20.1c-0.1,4,5.2,5,7.2,1.9c24.9-37,64-63.7,106.1-77.7c43.5-14.5,90.5-13.5,134,0.5
			c13.4,4.3,27.8,9.5,39.1,18c3.1,2.3,6-1.5,5.6-4.3c-6.6-48.7-10.4-97.5-12.5-146.6c-1.9-46.4-2.2-92.8-3.2-139.2
			c-0.5-28.1-1.2-56.1-2.5-84.2c-0.2-5-8-5-7.7,0c2,48.7,2.6,97.5,3.5,146.3c0.9,47,2.2,93.9,5.8,140.8c2.2,28.4,5.2,56.7,9.1,84.9
			c1.9-1.5,3.8-2.9,5.6-4.3c-10.2-7.7-23-12.6-35-16.8c-20.1-7-41.2-11.4-62.4-12.8c-48.4-3.3-97,10.4-137.2,37.4
			c-21.6,14.5-40.5,32.6-55.1,54.1c2.4,0.6,4.8,1.3,7.2,1.9c1.9-94.1,10.8-187.9,18.6-281.6c1.9-22.2,3.6-44.4,5.3-66.6
			c0.8-10.2,1.4-20.4,2.1-30.6c0.2-3.7,0.5-5.1,1.4-9.1c1.8-8.3,2.3-17.2,7.5-24.1c5.7-7.8,13.3-14.9,20.7-21.1
			c15.4-13,33.7-22.4,52.9-28.6c23.7-7.7,48.7-10.1,73.6-9.2c13.5,0.5,27,2,40.4,4.3c6.9,1.2,13.7,2.5,20.5,3.9
			c5.3,1.2,12,1.7,15.7,6.1c-0.4-0.9-0.8-1.9-1.2-2.7c0.4,9.4,0.8,18.7,1.1,28.2c0.1,1.5,1.2,3.4,2.9,3.7c18,3.1,36,6.2,54,9.4
			c-0.9-1.2-1.9-2.5-2.9-3.7c-1.2,14-1.2,28.2-1.9,42.3c-1.3,32.3-2.7,64.7-4,97.1c-1.6,38.7-3.2,77.3-4.7,116
			c-1.4,33.3-2.7,66.6-4.1,99.9c-0.5,11-0.9,22-1.3,33c-0.2,5-1.1,10.5-0.6,15.5c0,0.2,0,0.5,0,0.7c1.3-1.3,2.6-2.6,3.9-3.9
			c-15.5-0.5-30.9-0.9-46.5-1.3c-35.4-1-70.9-1.9-106.4-2.8c-39.5-0.9-79-1.9-118.4-2.5c-27.1-0.4-54.2-1.1-81.2-0.3
			c-52.9,1.6-105.7,4.4-158.7,6c-15.8,0.5-31.6,0.9-47.4,1.4c-1.7,0.1-3.2,0.3-4.9,0.6c-3.9,0.7-6.8,0.5-6.9-4.1
			c0-1.2,0.1-2.4,0.1-3.6c0.2-5.7,0.2-11.4,0.2-17.2c0.1-34.4-0.9-68.8-1.9-103.3c-1.2-41.1-2.6-82.2-4.2-123.1
			c-1.2-32.6-2.6-65.1-3.9-97.6c-0.4-8.4-0.7-16.6-1.1-25c-0.1-1.2-0.4-2.8-0.2-4c0.3-1.7,0.9-1.4,2.6-1.4c2.2,0,4.3,0.1,6.5,0.1
			c5.6,0.1,11.3,0.1,16.9,0.2c10.1,0.1,20.1,0.1,30.2,0.2c2.1,0,3.8-1.8,3.9-3.9c0.2-7.7-0.2-15.4-0.2-23.1c0-4.9-0.2-10.4,2-14.9
			c0.9-1.9,2.2-3.4,3.8-4.6c0.5-0.4,3.5-2,0.8-1.2c0.2-0.1,0.3,0,0.4-0.1c2-0.2,4.1-0.5,6.1-0.6c25.4-2.4,51.1-2.8,76.6-1.7
			c33.9,1.5,67.3,5.7,99.6,16.1c14.3,4.6,28.5,9.9,41.8,16.9c6,3.2,14.1,6.6,14.8,14.2c0.3,3.6-0.1,7.3-0.2,11
			c-0.5,36,1.7,71.9,3.2,107.8c2.1,48.8,4.3,97.7,5.9,146.5c1.2,38.1,3.1,76.4,0.6,114.5c-0.2,2.7-0.4,5.4-0.7,8.1
			c2.4-0.6,4.8-1.3,7.2-1.9c-2.2-4.3-6.6-7.4-10.4-10.1c-5.6-4-11.5-7.5-17.6-10.8c-11-6-22.1-11.1-34.3-13.7
			c-43.4-9-88.3-12.8-133-11.3c-25.1,0.9-50,3.3-74.7,7.3c1.6,1.2,3.2,2.5,4.9,3.7c0.2-11,0.2-22,0.4-33c0.3-26.2,0.6-52.5,0.9-78.7
			c0.4-31.9,0.7-63.8,1.1-95.7c0.3-27.5,0.6-54.9,0.9-82.4c0.2-13.4,0.9-26.9,0.5-40.3c0-0.2,0-0.4,0-0.5
			C195.5,263.2,187.7,263.2,187.7,268.2L187.7,268.2z"/>
	</g>
</g>
</svg>
