<?xml version="1.0" encoding="utf-8"?>
<!-- Generator: Adobe Illustrator 22.1.0, SVG Export Plug-In . SVG Version: 6.00 Build 0)  -->
<svg version="1.1" id="Layer_1" xmlns="http://www.w3.org/2000/svg" xmlns:xlink="http://www.w3.org/1999/xlink" x="0px" y="0px"
	 viewBox="0 0 864 864" style="enable-background:new 0 0 864 864;" xml:space="preserve">
<style type="text/css">
	.st0{fill:#FFFFFF;}
</style>
<g>
	<g>
		<path class="st0" d="M314.6,619.2c-47.6,38.9-72.4,97-95.5,152.2c2.8-0.7,5.6-1.5,8.4-2.2c-32.2-31.2-42.3-77.8-38.8-121.2
			c2.3-29,11.8-58.4,23.1-85.1c3-7.1,6.4-14.3,10.6-20.8c1.5-2.2,3.1-4.5,5.1-6.3c0.8-0.8,1.2-1,2.3-1.7c0.1-0.1,1.2-0.3,1.2-0.3
			c-1.4-0.8-2.9-1.7-4.3-2.5c21.1,38.1,43.4,77.3,75.3,107.6c13.1,12.4,27.6,23.2,43,32.6c20.2,12.5,41.9,24.5,65.7,27.9
			c24.5,3.4,47.6-4.2,70.2-12.7c-2.1-2.1-4.1-4.1-6.2-6.2c-3.4,18.6-8.5,36.9-15,54.7c-6.4,17.4-14.4,35.3-27,49.1
			c2.6,0.3,5.2,0.7,7.9,1c-15.7-23.1-26.2-51.5-25.3-79.6c-2.1,1.6-4.2,3.2-6.3,4.8c81.8,15.6,155.8-48.2,199-110.9
			c13.1-19,24.1-39.2,32.8-60.5c-3,0.4-6.1,0.8-9.1,1.2c39.8,53.9,51.6,129,30.7,192.6c-5.9,17.9-14.6,34.9-26.1,49.8
			c2.8,0.7,5.6,1.5,8.4,2.2c-18.7-46.8-44.9-90-77.8-128.1c0,2.4,0,4.7,0,7.1c67.6-58.2,117.1-146.8,113.7-237.7
			c-0.9-25.1-6.1-49.9-15.6-73.2c-3,1.3-6.1,2.6-9.1,3.9c24.3,39.3,46,79.9,68.9,120c6.8,11.9,13.8,23.6,21,35.2
			c1.7,2.8,5.5,3.2,7.9,1c27.1-25.4,48.1-59.5,48.5-97.6c0.3-35.9-16.1-72.4-39.1-99.4c-16.2-19-37-34.5-58.5-47
			c-23.3-13.5-48.9-24.3-75.5-28.9c-24-4.2-49.7-3.4-71.5,8.6c-10.7,6-19.8,14.5-26.7,24.6c-3.9,5.6-7.1,11.8-9.9,18.1
			c-1.8,4.2-3.8,8.8-4,13.4c-0.4,7.4,5.4,11.5,12.3,9.2c7.7-2.6,14.5-9.1,20-14.8c7-7.2,13.5-15.4,17.8-24.5
			c4.8-10.1,5-19.1,0.8-29.6c-10.3-26-37.9-39.8-64.2-44c-34.3-5.5-69.1,6.1-95.6,28.1c-6.8,5.6-12.9,12-18.4,18.9
			c2.8,0.7,5.6,1.5,8.4,2.2c-7.3-47.1-7-97.4,4.4-143.9c3.8-15.5,11.2-35.4,28.2-40.3c19.4-5.6,36.5,11.9,45.2,27.3
			c12.7,22.3,16.9,49.4,14.5,74.8c2.1-1.6,4.2-3.2,6.3-4.8c-54.7-7.4-111.3,4.7-158.3,33.8c-13.2,8.2-25.5,17.7-36.8,28.3
			c1.2-0.5,2.4-1,3.5-1.5c-39.5-1.9-80.2-0.8-117.9,12c-32.1,10.9-61.3,30.5-80.8,58.5c-30.3,43.5-31.6,100.8-17.3,150.3
			c5.3,18.3,12.5,38.2,25.2,52.8c2.2,2.5,6.2,1.5,7.9-1c23-36.1,46-72.2,69-108.3c3.3-5.1,6.5-10.3,9.8-15.4
			c-3.1-0.8-6.2-1.7-9.3-2.5c-0.6,32.4,3,66.4,12.6,97.5c3.7,12,8.5,23.8,15.3,34.4c3.1,4.8,10.4,1.7,9.1-3.9
			c-4.8-21.1-5.9-43.5-5.5-65.1c0.8-44.3,11-89.4,36.2-126.5c14.2-20.9,32.6-39.6,51.9-55.8c17.8-14.9,37.6-27.6,58.8-37.1
			c38.9-17.4,82.7-22.5,124.3-12.8c54.1,12.7,99.2,47.9,133.9,90.2c4.1,5,11.1-2.1,7.1-7.1c-32.4-39.4-73.5-72.6-122.6-88.4
			c-42.5-13.7-88.7-12.5-130.7,2.5c-46.6,16.7-86.5,48.2-118,85.9c-31.3,37.4-46.6,83.7-50.2,131.9c-1.3,18.2-1.1,36.6,0.7,54.7
			c0.9,9.3,1.3,19.8,4.1,28.8c0.1,0.4,0.2,0.9,0.3,1.4c3-1.3,6.1-2.6,9.1-3.9c-11.9-18.4-17.5-40.3-21.3-61.6
			c-3.1-18-4.7-36.2-5.2-54.4c-0.1-3.6-0.2-7.2-0.1-10.7c0.1-5.1-6.7-6.6-9.3-2.5c-23,36.1-46,72.2-69,108.3
			c-3.3,5.1-6.5,10.3-9.8,15.4c2.6-0.3,5.2-0.7,7.9-1c-5.6-6.4-10.5-16.2-14.3-24.8c-5.6-12.9-9.6-26.5-12.5-40.2
			c-6.8-32.7-6.3-67.5,5.9-98.9c15.8-40.5,51.7-69,92.5-82c24.7-7.9,50.6-10.8,76.5-11.3c6.2-0.1,12.5-0.1,18.7,0
			c3.4,0.1,6.8,0.2,10.2,0.3c2.8,0.1,6.7,1,9.3-0.4c2.5-1.3,4.8-4.3,6.9-6.1c2-1.7,4-3.5,6.1-5.1c5-4.1,10.2-7.9,15.5-11.5
			c45.8-30.9,103-45,157.9-37.6c3.4,0.5,6-1.3,6.3-4.8c2.4-25.7-2.1-51.9-13.4-75.1c-8.9-18.2-26.1-37.2-47.7-37.9
			c-20.7-0.7-34.5,15.9-41.6,33.5c-4.1,10.1-6.3,20.8-8.1,31.5c-2.3,13.3-4,26.7-5,40.2c-2.3,31-0.9,62.1,3.9,92.7
			c0.6,3.5,6.1,5,8.4,2.2c20.3-25.7,51.1-43.8,84.2-45.5c23.5-1.2,50.5,5.7,67.2,23c6.8,7,14.1,19,12.8,28.5
			c-1,7.9-6.2,15.4-10.9,21.6c-5,6.5-10.9,12.8-17.5,17.7c-2.3,1.7-5.2,3.5-7,4c-1,0.3-0.3,0.2-0.4,0.2c0.7,0.4,0.7,0.3,1.5,1.2
			c-0.2-0.2,0.1,0.5,0.1,0.4c0.2-2.7,1.1-6,2.4-9.3c2.3-5.7,5.3-11.2,8.6-16.4c5.8-8.9,13.4-16.6,22.6-22.1
			c18.5-11.1,41.1-12.6,62-9.5c24.1,3.5,47.3,12.5,68.7,24c20.4,11,39.8,24.5,56.3,40.9c20.6,20.6,35.8,48.1,42,76.6
			c7.7,35.2-3.4,69.6-25.8,97.1c-5.3,6.5-11,12.5-17.1,18.2c2.6,0.3,5.2,0.7,7.9,1c-22.5-36.4-41.9-74.5-63.4-111.4
			c-8.6-14.7-17.4-29.3-26.4-43.8c-2.8-4.6-11.4-1.6-9.1,3.9c34,83,7.3,176.2-44,245.9c-15,20.3-32.4,38.9-51.5,55.3
			c-2.2,1.9-1.7,5.2,0,7.1c31.7,36.7,57.3,78.6,75.2,123.7c1.2,3,5.8,5.5,8.4,2.2c43.9-56.3,48.9-136.2,24.9-201.9
			c-6.8-18.7-16.1-36.5-27.9-52.5c-2.7-3.6-7.5-2.9-9.1,1.2c-14.8,36.2-37.1,69.6-64.1,97.8c-26.4,27.7-58.6,52-95.6,62.9
			c-19.4,5.8-39.9,7.4-59.8,3.6c-3.2-0.6-6.2,1.4-6.3,4.8c-1,29.8,10,60.2,26.6,84.7c1.7,2.5,5.5,3.5,7.9,1
			c13.2-14.4,21.6-32.7,28.5-50.7c7.1-18.6,12.4-37.9,16.1-57.5c0.6-3.4-2.3-7.6-6.2-6.2c-19.1,7.2-38.8,14.3-59.6,13.1
			c-23.4-1.4-44.7-12.9-64.4-24.7c-30.8-18.4-56.5-41.9-77.3-71.2c-15.4-21.7-28.7-44.8-41.6-68.1c-0.8-1.5-2.6-2.5-4.3-2.5
			c-11.8,0.2-19.1,15.4-23.5,24.4c-7.6,15.5-13.3,32.1-18.3,48.6c-11,36.3-15.1,74-6.2,111.4c6.1,25.6,18.4,49.5,37.4,67.9
			c3,2.9,6.9,1.2,8.4-2.2c22.5-53.7,46.8-110,93-147.8C326.7,622.2,319.6,615.2,314.6,619.2L314.6,619.2z"/>
	</g>
</g>
</svg>
