<?xml version="1.0" encoding="utf-8"?>
<!-- Generator: Adobe Illustrator 22.1.0, SVG Export Plug-In . SVG Version: 6.00 Build 0)  -->
<svg version="1.1" id="Layer_1" xmlns="http://www.w3.org/2000/svg" xmlns:xlink="http://www.w3.org/1999/xlink" x="0px" y="0px"
	 viewBox="0 0 3519.3 1449.6" style="enable-background:new 0 0 3519.3 1449.6;" xml:space="preserve">
<style type="text/css">
	.st0{fill:#FFFFFF;}
	.st1{opacity:0;fill:none;stroke:#FFFFFF;stroke-width:2;stroke-linecap:round;stroke-miterlimit:10;}
</style>
<g>
	<g>
		<path class="st0" d="M877.7,835.7c30.6,37.3,76.1,56.8,119.5,75c-0.7-2.8-1.5-5.6-2.2-8.4c-23.9,24.7-59.5,32.6-92.8,30.1
			c-22.8-1.7-45.8-9.1-66.8-17.9c-5.6-2.4-11.3-5-16.4-8.3c-1.7-1.1-3.4-2.3-4.7-3.7c-0.8-0.8-0.7-0.8-1.3-1.7
			c-0.4-0.7-0.2,0-0.2-0.5c-0.8,1.4-1.7,2.9-2.5,4.3c29.7-16.5,60.2-33.8,84-58.6c10.1-10.5,18.7-22.3,26.3-34.6
			c9.7-15.8,19.1-32.8,21.7-51.4c2.7-19.3-3.2-37.5-9.9-55.4c-2.1,2.1-4.1,4.1-6.2,6.2c14.4,2.7,28.7,6.6,42.4,11.6
			c13.5,5,27.5,11.2,38.3,20.9c0.3-2.6,0.7-5.2,1-7.9c-18,12.2-39.8,20.3-61.7,19.6c1.6,2.1,3.2,4.2,4.8,6.3
			c12.2-64.5-37.7-122.7-87.1-156.8c-14.9-10.3-30.9-19-47.7-25.8c0.4,3,0.8,6.1,1.2,9.1c42-30.9,100.1-40.2,149.7-23.9
			c13.8,4.5,27,11.3,38.5,20.2c0.7-2.8,1.5-5.6,2.2-8.4c-36.8,14.7-70.7,35.3-100.7,61.1c2.4,0,4.7,0,7.1,0
			c-45.7-53.1-115.3-91.9-186.7-89.3c-19.7,0.7-39.2,4.8-57.5,12.3c1.3,3,2.6,6.1,3.9,9.1c39.8-24.7,81.6-45.7,121.4-70.2
			c2.8-1.7,3.2-5.5,1-7.9c-20.1-21.5-47.1-38-77.2-38.2c-28.4-0.2-57.4,12.9-78.8,31.3c-15,12.9-27.3,29.5-37.1,46.6
			c-10.6,18.4-19,38.7-22.4,59.7c-3.1,19-2.2,39.4,7.7,56.4c5,8.5,12.1,15.6,20.3,21.1c6.7,4.4,16.2,10.2,24.6,10.2
			c6.3,0,9.3-5.4,7.5-11.1c-2.1-6.3-7.4-11.8-12-16.3c-5.7-5.5-12.2-10.6-19.3-14c-8.3-3.9-15.6-3.9-24.1-0.5
			c-20.6,8.2-31.6,30.2-34.9,51.1c-4.2,26.9,4.7,53.9,21.7,74.8c4.6,5.6,9.8,10.6,15.4,15.1c0.7-2.8,1.5-5.6,2.2-8.4
			c-36.4,5.7-75.2,5.4-111.2-3.3c-11.9-2.8-27.5-8.2-31.4-21.2c-4.6-15.1,9.7-28.3,21.6-34.8c17.2-9.4,37.7-12.5,57.1-10.7
			c-1.7-1.7-3.3-3.3-5-5c-7.3,54.9,11.2,111.9,49,152.3c-0.5-1.2-1-2.4-1.5-3.5c-2.7,56.8,5.2,120.9,55.5,156.2
			c34.2,24,79.6,25.1,118.6,13.8c14.5-4.2,30.2-9.9,41.7-20c2.5-2.2,1.5-6.2-1-7.9c-28.2-18-56.4-35.9-84.6-53.9
			c-4-2.6-8-5.1-12.1-7.7c-0.8,3.1-1.7,6.2-2.5,9.3c12.9,0.2,26-0.7,38.8-2.3c22.2-2.7,45.7-7.3,64.8-19.7c4.8-3.1,1.7-10.4-3.9-9.1
			c-16.4,3.7-33.8,4.6-50.5,4.3c-34.4-0.6-69.5-8.5-98.3-28c-30.7-20.8-56.9-52-72.1-85.7c-13.7-30.4-17.8-64.7-10.1-97.2
			c9.9-42.1,37.4-77,70.2-104c5-4.1-2.1-11.1-7.1-7.1c-31.1,25.6-57.3,58.2-69.6,97.1c-10.5,33.3-9.5,69.4,2.3,102.2
			c13.1,36.4,37.6,67.6,67,92.3c29.5,24.8,66,37,104.2,39.8c22,1.6,45.2,0.9,66.8-4c-1.3-3-2.6-6.1-3.9-9.1
			c-18.2,11.8-40.9,16.1-62.1,18.6c-12.1,1.4-24.3,2.2-36.5,2c-5.1-0.1-6.6,6.7-2.5,9.3c28.2,18,56.4,35.9,84.6,53.9
			c4,2.6,8,5.1,12.1,7.7c-0.3-2.6-0.7-5.2-1-7.9c-4.8,4.2-12.5,8.1-19.1,10.9c-9.9,4.3-20.5,7.4-31,9.6c-25.5,5.3-52.9,4.9-77.3-4.7
			c-31.9-12.6-53.8-41.3-63.6-73.5c-5.9-19.4-7.9-39.7-8.2-60c-0.1-4.8,0-9.6,0.1-14.4c0.1-4.4,1.8-10.8-1-14.5
			c-2.7-3.5-6-6.7-8.8-10.1c-3.2-4-6.2-8.1-9-12.4c-23.8-36-34-80-28.2-122.7c0.4-2.8-2.6-4.8-5-5c-20.1-1.9-40.6,1.7-58.8,10.4
			c-14.6,7-29.3,20.3-30.6,37.4c-1.3,16.4,11.4,28.1,25.3,34c17.7,7.5,38.3,9.5,57.2,11c24.6,1.9,49.2,0.7,73.5-3.1
			c3.5-0.6,5-6.1,2.2-8.4c-19.9-15.8-34-39.5-35.2-65.2c-0.9-17.9,4.3-38.4,17.3-51.3c5.3-5.3,14.6-11,21.8-10.1
			c6,0.7,11.9,4.8,16.6,8.4c5,3.9,9.9,8.4,13.6,13.6c1,1.4,2.4,4.2,2.7,4.6c0.6,0.9,0.1,0.3,0.2,0.1c0.4-0.6,0.8-1.2,1.3-1.8
			c0.9-1.1,1.5,0.4,0.3-0.3c-1-0.6-4.8-1.2-6.7-2.1c-4.7-2-9.3-4.5-13.5-7.3c-6.7-4.6-12.3-10.6-16.3-17.7
			c-8.2-14.5-8.8-32.2-6.2-48.4c5.8-35,24.9-69.8,49.8-94.9c18.1-18.2,43.6-31.8,69.3-34.4c31.2-3.2,58.8,12.8,79.6,34.9
			c0.3-2.6,0.7-5.2,1-7.9c-39.8,24.6-81.7,45.6-121.4,70.2c-4.6,2.8-1.6,11.4,3.9,9.1c64.7-26.4,137-5.8,191.3,34.2
			c15.9,11.7,30.3,25.3,43.2,40.2c1.9,2.2,5.2,1.7,7.1,0c28.6-24.7,61.2-44.6,96.3-58.6c3-1.2,5.5-5.8,2.2-8.4
			c-44.5-34.5-107.3-38.7-159.2-19.7c-14.7,5.4-28.6,12.6-41.2,21.9c-3.7,2.7-2.9,7.5,1.2,9.1c28.1,11.5,54,28.9,76,49.8
			c21.5,20.5,40.4,45.5,49,74.3c4.5,15,5.8,30.8,2.9,46.3c-0.6,3.2,1.4,6.2,4.8,6.3c23.5,0.8,47.5-7.9,66.8-21
			c2.5-1.7,3.5-5.6,1-7.9c-11.4-10.3-25.6-17-39.9-22.5c-14.6-5.6-29.9-9.8-45.3-12.7c-3.4-0.6-7.6,2.3-6.2,6.2
			c5.6,15,11.3,30.4,10.2,46.7c-1.2,18.1-10.2,34.5-19.4,49.7c-14.4,23.9-32.7,43.8-55.4,60c-16.9,12-34.9,22.3-52.9,32.3
			c-1.5,0.8-2.5,2.6-2.5,4.3c0.3,9.6,11.7,15.4,19.1,19.1c12.2,6.1,25.3,10.6,38.3,14.6c28.8,8.8,58.7,12,88.4,5
			c20.1-4.8,39-14.6,53.4-29.5c2.9-3,1.2-6.9-2.2-8.4c-41.9-17.6-85.6-36.5-115.1-72.4C880.7,823.7,873.6,830.8,877.7,835.7
			L877.7,835.7z"/>
	</g>
</g>
<g>
	<g>
		<path class="st0" d="M1105.8,875.8c63.9-5.7,127.8-14.1,190.1-29.5c50.2-12.4,103.1-29,144.6-61c40.3-31.2,70.7-80.2,63-132.7
			c-6.7-45.4-45-106.3-98.2-94.6c-35.3,7.7-57.2,46.8-42,80c18.2,39.7,66.9,60.8,106.5,71.3c66.6,17.8,136.3,9.8,204,5.1
			c73-5,146.4-5.5,219.5-1.3c62.9,3.6,127.4,8.6,188.6,24.4c18.1,4.6,44.8,10.2,57.1,25.8c9.9,12.6-6.6,34.4-14.9,44.1
			c-24.5,28.5-62.9,41.3-98.7,48.4c-35.9,7.1-72.8,8.7-109.2,7.9c-34.1-0.7-69.3-2-101.7-13.7c-21.8-7.9-47.2-21.5-57.6-43.5
			c-14.6-30.9,10-62.9,30.8-83.9c35.4-35.8,80.1-62.1,125.6-83.1c55.8-25.8,115.1-44,175-57.1c67.4-14.7,136.3-22.8,205.2-24.6
			c69.1-1.8,139.2,2.3,206.7,18.4c31.2,7.4,62,17.6,90.6,32.4c22.5,11.6,45.5,26.5,60.1,47.7c28.3,40.9-4.5,79.1-41,99.5
			c-25.7,14.3-54.4,22.3-83.3,26.9c1.9,2.4,3.8,4.9,5.6,7.3c41.3-69.9,110.4-116.4,186.4-141.8c105.2-35.2,220.1-34.6,329-20.8
			c84.5,10.8,167.6,30.6,249.1,55.2c6.2,1.9,8.8-7.8,2.7-9.6c-134.2-40.7-275.7-69.6-416.6-63.3c-94.6,4.2-192.9,25.2-271.3,80.8
			c-35.5,25.2-65.6,57-87.8,94.5c-2.4,4.1,1.6,8,5.6,7.3c47.7-7.6,105.2-26.1,132.6-69.4c23-36.3,2.9-73.6-27.3-98.1
			c-46.8-37.8-109-55.4-167.2-65.6c-68.7-12-139-14-208.5-10c-126.2,7.3-255.8,33.4-369.3,90.7c-45.1,22.7-91.3,51.8-123.2,91.7
			c-16.5,20.6-30,47.4-20.5,74.2c6.7,18.9,23.8,32.9,40.7,42.5c34.8,19.7,74.2,23.4,113.3,25.1c34.9,1.5,69.9,0.8,104.5-3.8
			c36.9-5,75.8-14.3,106.5-36.5c14.1-10.1,26.2-23,34.1-38.5c6.6-13.1,11.6-26.7,0.6-38.8c-13.1-14.4-35.6-20.7-53.6-25.7
			c-26.4-7.4-53.6-12-80.7-15.6c-70.8-9.6-142.4-13.8-213.8-13.9c-37.7-0.1-75.4,1-113,3.4c-36.8,2.3-73.5,5.9-110.4,6.5
			c-59.3,0.9-125.1-6.7-173.8-44c-15.1-11.6-30.2-27.9-32.1-47.7c-1.9-19.7,11.9-39.1,29.3-47.3c32.9-15.6,60.4,8.4,77.3,34.4
			c15.9,24.4,23.8,53.6,18.6,82.6c-10.2,56.4-58.7,95.7-108.2,118.1c-56.2,25.5-118.4,38.2-179.1,47.6c-33.2,5.1-66.6,8.9-100,11.9
			C1099.5,866.3,1099.4,876.3,1105.8,875.8L1105.8,875.8z"/>
	</g>
</g>
<rect x="135.3" y="168.6" class="st1" width="3343" height="1133.7"/>
</svg>
