<?xml version="1.0" encoding="utf-8"?>
<!-- Generator: Adobe Illustrator 22.1.0, SVG Export Plug-In . SVG Version: 6.00 Build 0)  -->
<svg version="1.1" id="Layer_1" xmlns="http://www.w3.org/2000/svg" xmlns:xlink="http://www.w3.org/1999/xlink" x="0px" y="0px"
	 viewBox="0 0 3251.9 864" style="enable-background:new 0 0 3251.9 864;" xml:space="preserve">
<style type="text/css">
	.st0{fill:#FFFFFF;}
</style>
<g>
	<g>
		<path class="st0" d="M733.9,558.2c38.9,47.6,97,72.4,152.2,95.5c-0.7-2.8-1.5-5.6-2.2-8.4c-31.2,32.2-77.8,42.3-121.2,38.8
			c-29-2.3-58.4-11.8-85.1-23.1c-7.1-3-14.3-6.4-20.8-10.6c-2.2-1.5-4.5-3.1-6.3-5.1c-0.8-0.8-1-1.2-1.7-2.3
			c-0.1-0.1-0.3-1.2-0.3-1.2c-0.8,1.4-1.7,2.9-2.5,4.3c38.1-21.1,77.3-43.4,107.6-75.3c12.4-13.1,23.2-27.6,32.6-43
			c12.5-20.2,24.5-41.9,27.9-65.7c3.4-24.5-4.2-47.6-12.7-70.2c-2.1,2.1-4.1,4.1-6.2,6.2c18.6,3.4,36.9,8.5,54.7,15
			c17.4,6.4,35.3,14.4,49.1,27c0.3-2.6,0.7-5.2,1-7.9c-23.1,15.7-51.5,26.2-79.6,25.3c1.6,2.1,3.2,4.2,4.8,6.3
			c15.6-81.8-48.2-155.8-110.9-199c-19-13.1-39.2-24.1-60.5-32.8c0.4,3,0.8,6.1,1.2,9.1c53.9-39.8,129-51.6,192.6-30.7
			c17.9,5.9,34.9,14.6,49.8,26.1c0.7-2.8,1.5-5.6,2.2-8.4c-46.8,18.7-90,44.9-128.1,77.8c2.4,0,4.7,0,7.1,0
			C720.6,238.6,632,189,541,192.4c-25.1,0.9-49.9,6.1-73.2,15.6c1.3,3,2.6,6.1,3.9,9.1c39.3-24.3,79.9-46,120-68.9
			c11.9-6.8,23.6-13.8,35.2-21c2.8-1.7,3.2-5.5,1-7.9c-25.4-27.1-59.5-48.1-97.6-48.5c-35.9-0.3-72.4,16.1-99.4,39.1
			c-19,16.2-34.5,37-47,58.5c-13.5,23.3-24.3,48.9-28.9,75.5c-4.2,24-3.4,49.7,8.6,71.5c6,10.7,14.5,19.8,24.6,26.7
			c5.6,3.9,11.8,7.1,18.1,9.9c4.2,1.8,8.8,3.8,13.4,4c7.4,0.4,11.5-5.4,9.2-12.3c-2.6-7.7-9.1-14.5-14.8-20
			c-7.2-7-15.4-13.5-24.5-17.8c-10.1-4.8-19.1-5-29.6-0.8c-26,10.3-39.8,37.9-44,64.2c-5.5,34.3,6.1,69.1,28.1,95.6
			c5.6,6.8,12,12.9,18.9,18.4c0.7-2.8,1.5-5.6,2.2-8.4c-47.1,7.3-97.4,7-143.9-4.4c-15.5-3.8-35.4-11.2-40.3-28.2
			c-5.6-19.4,11.9-36.5,27.3-45.2c22.3-12.7,49.4-16.9,74.8-14.5c-1.6-2.1-3.2-4.2-4.8-6.3c-7.4,54.7,4.7,111.3,33.8,158.3
			c8.2,13.2,17.7,25.5,28.3,36.8c-0.5-1.2-1-2.4-1.5-3.5c-1.9,39.5-0.8,80.2,12,117.9c10.9,32.1,30.5,61.3,58.5,80.8
			c43.5,30.3,100.8,31.6,150.3,17.3c18.3-5.3,38.2-12.5,52.8-25.2c2.5-2.2,1.5-6.2-1-7.9c-36.1-23-72.2-46-108.3-69
			c-5.1-3.3-10.3-6.5-15.4-9.8c-0.8,3.1-1.7,6.2-2.5,9.3c32.4,0.6,66.4-3,97.5-12.6c12-3.7,23.8-8.5,34.4-15.3
			c4.8-3.1,1.7-10.4-3.9-9.1c-21.1,4.8-43.5,5.9-65.1,5.5c-44.3-0.8-89.4-11-126.5-36.2c-20.9-14.2-39.6-32.6-55.8-51.9
			c-14.9-17.8-27.6-37.6-37.1-58.8c-17.4-38.9-22.5-82.7-12.8-124.3c12.7-54.1,47.9-99.2,90.2-133.9c5-4.1-2.1-11.1-7.1-7.1
			c-39.4,32.4-72.6,73.5-88.4,122.6c-13.7,42.5-12.5,88.7,2.5,130.7c16.7,46.6,48.2,86.5,85.9,118c37.4,31.3,83.7,46.6,131.9,50.2
			c18.2,1.3,36.6,1.1,54.7-0.7c9.3-0.9,19.8-1.3,28.8-4.1c0.4-0.1,0.9-0.2,1.4-0.3c-1.3-3-2.6-6.1-3.9-9.1
			c-18.4,11.9-40.3,17.5-61.6,21.3c-18,3.1-36.2,4.7-54.4,5.2c-3.6,0.1-7.2,0.2-10.7,0.1c-5.1-0.1-6.6,6.7-2.5,9.3
			c36.1,23,72.2,46,108.3,69c5.1,3.3,10.3,6.5,15.4,9.8c-0.3-2.6-0.7-5.2-1-7.9c-6.4,5.6-16.2,10.5-24.8,14.3
			c-12.9,5.6-26.5,9.6-40.2,12.5c-32.7,6.8-67.5,6.3-98.9-5.9c-40.5-15.8-69-51.7-82-92.5c-7.9-24.7-10.8-50.6-11.3-76.5
			c-0.1-6.2-0.1-12.5,0-18.7c0.1-3.4,0.2-6.8,0.3-10.2c0.1-2.8,1-6.7-0.4-9.3c-1.3-2.5-4.3-4.8-6.1-6.9c-1.7-2-3.5-4-5.1-6.1
			c-4.1-5-7.9-10.2-11.5-15.5c-30.9-45.8-45-103-37.6-157.9c0.5-3.4-1.3-6-4.8-6.3c-25.7-2.4-51.9,2.1-75.1,13.4
			c-18.2,8.9-37.2,26.1-37.9,47.7c-0.7,20.7,15.9,34.5,33.5,41.6c10.1,4.1,20.8,6.3,31.5,8.1c13.3,2.3,26.7,4,40.2,5
			c31,2.3,62.1,0.9,92.7-3.9c3.5-0.6,5-6.1,2.2-8.4c-25.7-20.3-43.8-51.1-45.5-84.2c-1.2-23.5,5.7-50.5,23-67.2
			c7-6.8,19-14.1,28.5-12.8c7.9,1,15.4,6.2,21.6,10.9c6.5,5,12.8,10.9,17.7,17.5c1.7,2.3,3.5,5.2,4,7c0.3,1,0.2,0.3,0.2,0.4
			c0.4-0.7,0.3-0.7,1.2-1.5c-0.2,0.2,0.5-0.1,0.4-0.1c-2.7-0.2-6-1.1-9.3-2.4c-5.7-2.3-11.2-5.3-16.4-8.6
			c-8.9-5.8-16.6-13.4-22.1-22.6c-11.1-18.5-12.6-41.1-9.5-62c3.5-24.1,12.5-47.3,24-68.7c11-20.4,24.5-39.8,40.9-56.3
			c20.6-20.6,48.1-35.8,76.6-42c35.2-7.7,69.6,3.4,97.1,25.8c6.5,5.3,12.5,11,18.2,17.1c0.3-2.6,0.7-5.2,1-7.9
			c-36.4,22.5-74.5,41.9-111.4,63.4c-14.7,8.6-29.3,17.4-43.8,26.4c-4.6,2.8-1.6,11.4,3.9,9.1c83-34,176.2-7.3,245.9,44
			c20.3,15,38.9,32.4,55.3,51.5c1.9,2.2,5.2,1.7,7.1,0c36.7-31.7,78.6-57.3,123.7-75.2c3-1.2,5.5-5.8,2.2-8.4
			c-56.3-43.9-136.2-48.9-201.9-24.9c-18.7,6.8-36.5,16.1-52.5,27.9c-3.6,2.7-2.9,7.5,1.2,9.1c36.2,14.8,69.6,37.1,97.8,64.1
			c27.7,26.4,52,58.6,62.9,95.6c5.8,19.4,7.4,39.9,3.6,59.8c-0.6,3.2,1.4,6.2,4.8,6.3c29.8,1,60.2-10,84.7-26.6
			c2.5-1.7,3.5-5.5,1-7.9c-14.4-13.2-32.7-21.6-50.7-28.5c-18.6-7.1-37.9-12.4-57.5-16.1c-3.4-0.6-7.6,2.3-6.2,6.2
			c7.2,19.1,14.3,38.8,13.1,59.6c-1.4,23.4-12.9,44.7-24.7,64.4c-18.4,30.8-41.9,56.5-71.2,77.3c-21.7,15.4-44.8,28.7-68.1,41.6
			c-1.5,0.8-2.5,2.6-2.5,4.3c0.2,11.8,15.4,19.1,24.4,23.5c15.5,7.6,32.1,13.3,48.6,18.3c36.3,11,74,15.1,111.4,6.2
			c25.6-6.1,49.5-18.4,67.9-37.4c2.9-3,1.2-6.9-2.2-8.4c-53.7-22.5-110-46.8-147.8-93C736.9,546.2,729.8,553.3,733.9,558.2
			L733.9,558.2z"/>
	</g>
</g>
<g>
	<g>
		<path class="st0" d="M1022.6,609c63.1-7.5,126.2-18.6,186.5-38.8c50-16.7,101.2-40.1,137.9-79c39.9-42.3,63.6-101.2,58.9-159.6
			c-2.3-28.7-11.1-56.5-24.9-81.7c-12-21.8-28.3-45.4-55.7-46.4c-46.7-1.7-67.5,57-57.5,94.8c11.5,43.8,51.5,75.4,91.4,92.5
			c62.8,26.8,131.3,19.3,197.4,12.9c74-7.1,148.4-8.5,222.6-2.8c62.3,4.8,127.6,11.6,186.8,32.9c17.7,6.4,46.3,16.8,52.4,37.1
			c2.7,9.1-1.6,19.6-4.6,28.1c-3.6,10-8.5,19.5-14.5,28.3c-42.5,62.2-130.6,71.1-199.5,68.8c-34.6-1.1-70.3-3.5-101.2-20.5
			c-22.7-12.5-44.1-32.4-51.1-58.1c-9.5-34.8,7-69.9,26.5-97.9c66.6-95.7,182.1-153.3,291.2-185.3c64.8-19,132.2-29.9,199.7-32.2
			c69.6-2.4,140.9,3.8,207.2,26.4c53.2,18.1,113.1,50.7,138.1,103.9c22.4,47.7-1.8,96.3-41.7,125.7c-23.6,17.4-51.1,28.2-79.6,34.3
			c1.9,2.4,3.8,4.9,5.6,7.3c35.9-80.7,97.9-145.4,178.7-181.8c99.6-44.9,214.3-44.7,320.2-26.2c81,14.2,159.8,39.3,236,70
			c6,2.4,8.6-7.3,2.7-9.6c-126.3-50.9-263.9-89.2-401.3-80.9c-95.1,5.7-189.3,36.6-259.9,102.4c-36.4,33.9-64.9,75.6-85,121
			c-1.8,4,1.1,8.3,5.6,7.3c50.9-10.7,104-38.9,127.4-87.7c20.7-43.1,6.5-88.2-24.4-122.3c-41-45.3-101.4-70.7-159.7-84.6
			c-68.4-16.4-140.1-18.8-210-12.8c-124.9,10.6-252.3,48.1-356,120.2c-45.1,31.3-88.6,70.7-115.6,119.1
			c-14.7,26.4-23.8,57.6-15.1,87.5c6.5,22.4,22.7,40.8,41.4,54.2c32.1,23,70.2,28.1,108.5,30.1c33.1,1.8,66.6,0.8,99.3-5.1
			c37.1-6.7,74.5-20.3,102.2-46.6c14.4-13.7,25.4-30.5,32.6-49c6.6-17,11.2-34.2-1.2-49.6c-13.3-16.6-35.6-25.4-55-32.2
			c-26-9.1-53.2-15-80.3-19.5c-73.2-12.3-147.7-17.5-221.8-16.3c-37.9,0.6-75.6,3.2-113.4,6.9c-38.6,3.8-77.5,7.8-116.3,4.5
			c-53.5-4.5-111.8-27.1-142.8-73.2c-11.9-17.7-19.1-39-15.7-60.5c4-25,23.6-54.6,52.1-51.4c31.2,3.5,48.7,44.8,57.8,70.4
			c10.6,29.9,13.8,62.3,8.3,93.6c-10.4,59.8-48.4,110.9-99.3,142.6c-52.6,32.8-114,50.4-174.2,62.9c-32.4,6.7-65,11.7-97.8,15.6
			C1016.3,599.8,1016.2,609.8,1022.6,609L1022.6,609z"/>
	</g>
</g>
</svg>
