<?xml version="1.0" encoding="utf-8"?>
<!-- Generator: Adobe Illustrator 22.1.0, SVG Export Plug-In . SVG Version: 6.00 Build 0)  -->
<svg version="1.1" id="Layer_1" xmlns="http://www.w3.org/2000/svg" xmlns:xlink="http://www.w3.org/1999/xlink" x="0px" y="0px"
	 viewBox="0 0 864 864" style="enable-background:new 0 0 864 864;" xml:space="preserve">
<style type="text/css">
	.st0{fill:#FFFFFF;}
</style>
<g>
	<g>
		<path class="st0" d="M492.6,721.2c-30.9-45.3-60.4-91.4-89.1-138.1c-31.5-51.4-61.7-103.5-90-156.7c-24-45.3-47.2-91.4-64.7-139.5
			c-6.2-17-11.8-34.4-14.7-52.3c-1.1-6.5-1.7-13.1-1.5-19.6c0.1-3,0.3-5,0.8-7.6c1.4-6.4,5.5-11.2,11.1-14.4
			c12.6-7.4,28.3-7.7,42.5-6.7c16.6,1.1,32.8,4.9,48.1,10.9c31.7,12.3,59.7,34.5,78.1,63.2c18.7,29.3,27.7,64.4,25.8,99
			c-0.5,8.5-1.6,17-3.6,25.3c-1.6,7.3-3.2,17-9.3,22.1c-5.9,5-14.3,1.9-19.2-3c-6.3-6.4-7-16.3-6.3-24.9
			c1.1-16.7,5.2-33.7,10.1-49.7c4.8-15.9,11.1-31.5,18.7-46.2c15-28.9,35.5-55,61.2-75.1c25.8-20.2,62-39,95.5-28.4
			c34.8,10.8,47.5,51.3,46.5,84.2c-1.1,38.2-18.7,74.3-38.5,106.3c-20,32.4-43.1,63-66.6,92.8c-47.4,60.3-99.7,116.7-156.2,168.4
			c-13.7,12.5-27.6,24.9-41.8,36.9c-3.6,3.1,1.6,8.2,5.2,5.2c61.2-51.9,117.9-108.8,169.5-170.3c25.6-30.5,49.9-62.1,72.9-94.7
			c23-32.5,45.2-66.8,56.3-105.3c10-34.5,10.1-75.8-11.9-105.9c-10.3-14.2-25.1-24.1-42.5-26.9c-17.8-2.8-36.1,0.9-52.7,7.8
			c-31.5,13.1-58.7,36.9-79.4,63.6c-21,27.3-36.3,59-45.4,92.2c-2.3,8.3-4.2,16.8-5.8,25.3c-1.6,9-3.2,18.2-2.8,27.3
			c0.5,8.3,2.8,16.9,9,22.9c5.1,5,12.4,8.2,19.8,7.1c17.3-2.6,20.6-26.4,22.7-40.3c2.7-17.9,2.7-35.9-0.2-53.9
			c-5.5-35.4-22.2-68.9-47.6-94c-24.9-24.5-57.3-41.2-91.7-47.3c-15.8-2.8-32.7-4-48.6-0.5c-13.2,2.9-27.2,10.4-30.2,24.8
			c-2.8,13.9-0.2,28.8,2.9,42.3c4.7,20.3,11.8,40.1,19.5,59.4c9.7,24.2,20.6,48,32.1,71.5c27,55.2,57.1,108.8,88.3,161.8
			c30.7,52,62.8,103.3,96.2,153.6c6.9,10.3,13.8,20.7,20.8,30.9C488.8,728.8,495.2,725.1,492.6,721.2L492.6,721.2z"/>
	</g>
</g>
</svg>
